<?xml version="1.0" encoding="UTF-8"?>
<!DOCTYPE svg PUBLIC "-//W3C//DTD SVG 1.1//EN" "http://www.w3.org/Graphics/SVG/1.1/DTD/svg11.dtd">
<!-- Creator: CorelDRAW 2019 (64-Bit) -->
<svg xmlns="http://www.w3.org/2000/svg" xml:space="preserve" width="101.6mm" height="15.2087mm" version="1.1" style="shape-rendering:geometricPrecision; text-rendering:geometricPrecision; image-rendering:optimizeQuality; fill-rule:evenodd; clip-rule:evenodd"
viewBox="0 0 10160 1520.87"
 xmlns:xlink="http://www.w3.org/1999/xlink">
 <defs>
  <style type="text/css">
   <![CDATA[
    .fil0 {fill:#FEFEFE}
   ]]>
  </style>
 </defs>
 <g id="Слой_x0020_1">
  <metadata id="CorelCorpID_0Corel-Layer"/>
  <g id="_2194372754160">
   <path class="fil0" d="M1014.11 736.07c-5.22,-1.95 -5.45,-9.57 -0.29,-11.71 67.16,-28.44 100.73,-84.78 100.73,-167.7 0,-63.31 -34.09,-116.92 -100.67,-159.11 -66.56,-42.22 -149.4,-63.32 -248.45,-63.32 -113.48,0 -210.9,16.05 -289.85,48.18 -14.11,5.7 -23.53,19.15 -23.53,34.37l0 117.02c0,17.22 17.27,29.12 33.24,22.74 68.24,-27.31 144.85,-40.43 229.8,-40.43 110.4,0 165.62,25.97 165.62,77.95 0,47.08 -38.97,71.42 -116.92,71.42l-134.3 0c-13.72,0 -24.82,11.13 -24.82,24.85l0 115.96c0,13.72 11.09,24.85 24.82,24.85l134.3 -0.01c95.82,0 142.9,25.98 142.9,79.54 0,60.12 -71.46,94.19 -194.87,94.19 -90.09,0 -172.88,-15.87 -248.33,-48.64 -16.18,-7.02 -34.2,4.86 -34.2,22.56l0 122.62c0,15 9.19,28.26 22.94,34.14 78.83,33.72 175.38,51.18 292.07,51.18 120.14,0 217.57,-24.34 290.67,-73.06 74.7,-50.33 112.01,-113.64 112.01,-189.99 0.04,-95.57 -56.59,-158.51 -132.87,-187.6z"/>
   <path class="fil0" d="M6101.83 985.09c-9.04,2.37 -19.57,3.52 -31.22,3.52 -37.4,0 -56.85,-21.1 -56.85,-61.71l0 -274.43c0,-99.05 -35.74,-176.99 -107.16,-233.83 -69.83,-56.8 -164.02,-84.42 -279.28,-84.42 -104.53,0 -193.91,16.4 -270.35,50.36 -18.16,8.02 -30.07,25.71 -30.07,45.52l0 99.92c0,26.58 27.35,44.76 51.58,33.91 61.54,-27.58 126.59,-41.39 193.6,-41.39 142.9,0 214.36,50.36 214.36,152.65l0 24.34c-64.96,-34.09 -142.9,-50.32 -233.85,-50.32 -87.67,0 -162.34,22.74 -225.69,68.18 -63.33,45.5 -94.19,112.04 -94.19,198.11 0,164 123.38,271.16 298.79,271.16 112.09,0 202.71,-35.28 273.34,-104.42 2.91,-2.91 7.65,-2 9.47,1.68 31.83,64.67 90.85,96.27 179.92,96.27 37.27,0 68.28,-5.51 93.54,-16.49 18.19,-7.94 29.9,-25.84 29.9,-45.67l0 -121.38c0.01,-8.25 -7.87,-13.62 -15.84,-11.56zm-315.39 -75.25c0,11.03 -3.52,21.97 -10.89,30.18 -41.66,46.48 -99.64,69.7 -172.62,69.7 -84.4,0 -144.49,-34.09 -144.49,-105.52 0,-66.59 61.65,-105.56 159.1,-105.56 54.98,0 102.18,11.08 143.47,32.31 15.71,8.07 25.43,24.43 25.43,42.07l0 36.82z"/>
   <path class="fil0" d="M7798.75 985.09c-8.99,2.37 -19.52,3.52 -31.23,3.52 -37.33,0 -56.85,-21.1 -56.85,-61.71l0 -274.43c0,-99.05 -35.71,-176.99 -107.16,-233.83 -69.83,-56.8 -164.01,-84.42 -279.28,-84.42 -104.52,0 -193.91,16.4 -270.35,50.36 -18.09,8.02 -30.07,25.71 -30.07,45.52l0 99.92c0,26.58 27.36,44.76 51.59,33.91 61.54,-27.58 126.64,-41.39 193.62,-41.39 142.93,0 214.33,50.36 214.33,152.65l0 24.34c-64.92,-34.09 -142.9,-50.32 -233.81,-50.32 -87.67,0 -162.37,22.74 -225.72,68.18 -63.33,45.5 -94.19,112.04 -94.19,198.11 0,164 123.45,271.16 298.79,271.16 112.12,0 202.74,-35.28 273.34,-104.42 2.96,-2.91 7.72,-2 9.53,1.68 31.83,64.67 90.78,96.27 179.92,96.27 37.24,0 68.21,-5.51 93.48,-16.49 18.19,-7.94 29.9,-25.84 29.9,-45.67l0 -121.38c0.01,-8.25 -7.88,-13.62 -15.84,-11.56zm-315.4 -75.25c0,11.03 -3.52,21.97 -10.83,30.18 -41.71,46.48 -99.66,69.7 -172.64,69.7 -84.43,0 -144.52,-34.09 -144.52,-105.52 0,-66.59 61.71,-105.56 159.1,-105.56 54.97,0 102.2,11.08 143.5,32.31 15.71,8.07 25.39,24.43 25.39,42.07l0 36.82z"/>
   <path class="fil0" d="M2764.39 334.22c-110.18,0 -195.84,36.07 -255.63,106.84 -3.67,4.32 -10.65,1.95 -10.65,-3.69l0 -44.4c0,-20.79 -16.86,-37.65 -37.67,-37.65l-153.59 0c-20.8,0 -37.67,16.86 -37.67,37.65l0 1059.74c0,20.79 16.87,37.64 37.67,37.64l153.59 0c20.8,0 37.67,-16.85 37.67,-37.64l0 -369.49c0,-5.7 6.96,-8.1 10.7,-3.82 62.39,71.05 146.68,107.3 255.58,107.3 110.45,0 201.36,-40.57 272.81,-121.79 73.07,-82.78 108.78,-183.46 108.78,-303.62 0,-121.8 -35.72,-222.44 -108.78,-303.68 -71.45,-82.77 -162.35,-123.39 -272.81,-123.39zm92.59 587.83c-40.62,43.85 -94.2,64.9 -157.51,64.9 -87.18,0 -160.42,-47.89 -198.6,-115.13 -1.84,-3.24 -2.76,-6.93 -2.76,-10.66l0 -199.75c0,-3.74 0.92,-7.43 2.76,-10.67 38.17,-67.28 111.42,-116.78 198.6,-116.78 63.31,0 116.89,21.1 157.51,64.95 40.6,43.85 61.69,97.42 61.69,162.37 0,63.32 -21.09,116.91 -61.69,160.77z"/>
   <path class="fil0" d="M8863.61 334.22c-110.15,0 -195.88,36.07 -255.62,106.84 -3.69,4.32 -10.66,1.95 -10.66,-3.69l0 -44.4c0,-20.79 -16.88,-37.65 -37.7,-37.65l-153.57 0c-20.84,0 -37.7,16.86 -37.7,37.65l0 1059.74c0,20.79 16.86,37.64 37.7,37.64l153.58 0c20.81,0 37.7,-16.85 37.7,-37.64l0 -369.49c0,-5.7 6.95,-8.1 10.7,-3.82 62.35,71.05 146.68,107.3 255.56,107.3 110.46,0 201.38,-40.57 272.8,-121.79 73.07,-82.78 108.79,-183.46 108.79,-303.62 0,-121.8 -35.74,-222.44 -108.79,-303.68 -71.41,-82.77 -162.32,-123.39 -272.79,-123.39zm92.59 587.83c-40.6,43.85 -94.21,64.9 -157.53,64.9 -87.14,0 -160.41,-47.89 -198.59,-115.13 -1.82,-3.24 -2.73,-6.93 -2.73,-10.66l0 -199.75c0,-3.74 0.91,-7.43 2.73,-10.67 38.18,-67.28 111.45,-116.78 198.59,-116.78 63.32,0 116.93,21.1 157.53,64.95 40.57,43.85 61.69,97.42 61.69,162.37 -0.01,63.32 -21.12,116.91 -61.69,160.77z"/>
   <path class="fil0" d="M4054.73 355.33l-731.01 0c-13.82,0 -25,11.17 -25,25.04l0 760.22c0,13.86 11.2,25.01 25,25.01l178.95 0c13.82,0 25,-11.17 25,-25.02l0 -568.58c0,-13.82 11.2,-25.04 25,-25.04l273.08 0c13.84,0 25.04,11.22 25.04,25.04l0 568.58c0,13.87 11.18,25.02 25,25.02l178.95 0c13.82,0 25,-11.17 25,-25.02l0 -760.22c-0.03,-13.86 -11.21,-25.03 -25.01,-25.03z"/>
   <path class="fil0" d="M5066.12 355.33l-649.78 0c-13.77,0 -25,10.99 -25.28,24.76l-4.37 213.97c-1.64,134.77 -6.49,202.92 -25.98,279.27 -17.84,73.07 -51.95,103.93 -105.55,103.93 -6.83,0 -13.4,-0.24 -19.67,-0.82 -14.8,-1.32 -27.42,10.25 -27.42,25.12l0 138.85c0,10.86 6.76,20.93 17.13,23.98 17.41,5.15 40.59,7.74 68.92,7.74 160.74,-4.87 238.7,-90.94 277.66,-227.37 27.61,-97.4 32.5,-172.11 37.37,-284.15l2.52 -89.07c0.39,-13.68 11.6,-24.57 25.3,-24.57l200.19 -0.01c13.97,0 25.3,11.31 25.3,25.3l0 568.03c0,14 11.32,25.3 25.29,25.3l178.37 -0.01c13.94,0 25.3,-11.29 25.3,-25.3l0 -759.65c-0.02,-13.99 -11.35,-25.3 -25.3,-25.3z"/>
   <path class="fil0" d="M6852.06 355.33l-687.6 0c-14.13,0 -25.62,11.45 -25.62,25.58l0 140.43c0,14.15 11.49,25.62 25.62,25.62l202.07 0c14.16,0 25.59,11.45 25.59,25.62l0 567.44c0,14.13 11.5,25.57 25.62,25.57l177.79 0.01c14.13,0 25.56,-11.45 25.56,-25.57l0 -567.44c0,-14.18 11.49,-25.62 25.62,-25.62l205.34 -0.01c14.13,0 25.62,-11.48 25.62,-25.62l0 -140.43c0.01,-14.13 -11.48,-25.58 -25.61,-25.58z"/>
   <path class="fil0" d="M8084.59 900.9c-79.54,0 -141.25,61.71 -141.25,139.66 0,79.59 61.71,142.9 141.25,142.9 77.93,0 141.29,-63.31 141.29,-142.9 0,-77.95 -63.36,-139.66 -141.29,-139.66z"/>
   <path class="fil0" d="M10135.12 355.33l-178.68 0c-15.59,0 -29.59,9.62 -35.14,24.2l-182.36 478.6c-4.09,10.63 -19.05,10.75 -23.3,0.19l-192.9 -479.33c-5.75,-14.32 -19.61,-23.66 -35.01,-23.66l-183.06 0c-18,0 -29.99,18.52 -22.69,34.92l329.1 737.74c2.82,6.38 2.85,13.86 0.09,20.24 -45.93,104.89 -95.63,152.15 -175.89,152.15 -31.34,0 -61.8,-5.8 -90.27,-16.81 -16.03,-6.15 -33.13,6.46 -33.13,23.6l0 139.94c0,13.23 8.1,24.94 20.41,29.87 37.97,15.08 85.99,23.16 141.95,23.16 144.53,0 251.69,-82.83 323.11,-250.07l360.69 -860.31c6.85,-16.38 -5.14,-34.43 -22.92,-34.43z"/>
   <path class="fil0" d="M2110.34 985.09c-8.99,2.37 -19.5,3.52 -31.22,3.52 -37.33,0 -56.82,-21.1 -56.82,-61.71l0 -274.43c0,-99.05 -35.74,-176.99 -107.18,-233.83 -69.82,-56.84 -164,-84.42 -279.28,-84.42 -81.28,0 -160.05,12.34 -224.42,33.63 -133.36,-220.29 -375.25,-367.85 -651,-367.85 -419.28,0 -760.42,341.13 -760.42,760.43 0,419.31 341.13,760.44 760.42,760.44 263.41,0 507.69,-138.52 645.37,-358.96 39.61,15.95 84.76,24.75 134.24,24.75 112.1,0 202.75,-35.27 273.36,-104.42 2.94,-2.91 7.68,-2 9.52,1.69 31.81,64.67 90.81,96.27 179.92,96.27 37.25,0 68.25,-5.51 93.49,-16.5 18.18,-7.93 29.93,-25.83 29.93,-45.66l0 -121.39c-0.02,-8.25 -7.93,-13.62 -15.91,-11.56zm-1349.91 451.2c-372.64,0 -675.8,-303.16 -675.8,-675.84 0,-372.63 303.16,-675.8 675.8,-675.8 341.79,0 624.92,255.08 669.52,584.81 -33.96,11.3 -65.48,27.12 -94.51,47.96 -63.31,45.49 -94.18,112.04 -94.18,198.11 0,85.96 34.13,156.07 91.64,203.57 -122.56,194.87 -339.07,317.19 -572.47,317.19zm1034.53 -526.45c0,11.03 -3.52,21.97 -10.87,30.18 -41.65,46.48 -99.65,69.7 -172.62,69.7 -84.44,0 -144.53,-34.09 -144.53,-105.52 0,-66.59 61.72,-105.56 159.12,-105.56 54.97,0 102.2,11.08 143.47,32.31 15.71,8.07 25.42,24.43 25.42,42.07l0 36.82 0.01 0zm0 -210.28c-64.95,-34.1 -142.9,-50.33 -233.82,-50.33 -16.55,0 -32.5,1.04 -48.13,2.68 -5.89,-40.94 -14.94,-80.86 -27.11,-119.42 31.35,-6.14 64.24,-9.94 94.74,-9.94 142.88,0 214.32,50.36 214.32,152.66l0 24.35z"/>
  </g>
 </g>
</svg>
